<?xml version="1.0" standalone="no"?>
<!DOCTYPE svg PUBLIC "-//W3C//DTD SVG 20010904//EN"
 "http://www.w3.org/TR/2001/REC-SVG-20010904/DTD/svg10.dtd">
<svg version="1.0" xmlns="http://www.w3.org/2000/svg"
 width="925.000000pt" height="1280.000000pt" viewBox="0 0 925.000000 1280.000000"
 preserveAspectRatio="xMidYMid meet">
<g transform="translate(0.000000,1280.000000) scale(0.100000,-0.100000)"
fill="#000000" stroke="none">
<path d="M4565 12790 c-49 -5 -162 -13 -250 -20 -1059 -78 -1962 -416 -2720
-1018 -145 -115 -463 -430 -567 -562 -358 -452 -581 -935 -692 -1500 -102
-518 -102 -1120 0 -1620 170 -837 647 -1524 1404 -2022 382 -252 1131 -549
2516 -998 577 -187 737 -247 949 -352 335 -166 540 -349 607 -542 39 -115 13
-382 -53 -542 -135 -325 -473 -520 -1029 -595 -246 -33 -631 -30 -876 6 -585
87 -1129 394 -1824 1029 -58 52 -110 96 -116 96 -5 0 -397 -478 -870 -1062
-472 -585 -901 -1114 -952 -1176 l-92 -112 0 -74 0 -73 203 -155 c629 -481
1108 -780 1612 -1008 650 -293 1262 -418 2324 -475 320 -17 449 -19 609 -6 64
6 180 15 257 21 1112 87 2078 470 2925 1158 123 100 449 424 537 532 429 532
673 1111 747 1770 38 340 41 435 22 693 -9 133 -24 294 -32 357 -106 848 -412
1517 -943 2063 -197 203 -465 418 -670 540 -413 245 -1206 548 -2366 906 -598
184 -757 242 -993 363 -329 168 -509 345 -545 539 -13 72 2 202 34 298 94 278
407 470 875 537 159 22 509 22 689 0 432 -55 811 -187 1180 -411 144 -88 279
-186 456 -334 79 -66 149 -119 154 -118 6 2 454 538 998 1192 775 934 984
1192 975 1201 -60 56 -548 388 -758 516 -677 412 -1481 715 -2260 852 -285 50
-458 70 -835 96 -289 20 -474 23 -630 10z"/>
</g>
</svg>
